<?xml version="1.0" encoding="UTF-8"?>
<!DOCTYPE svg PUBLIC "-//W3C//DTD SVG 1.1//EN" "http://www.w3.org/Graphics/SVG/1.1/DTD/svg11.dtd">
<svg xmlns="http://www.w3.org/2000/svg" version="1.1" width="1024px" height="1024px" style="shape-rendering:geometricPrecision; text-rendering:geometricPrecision; image-rendering:optimizeQuality; fill-rule:evenodd; clip-rule:evenodd" xmlns:xlink="http://www.w3.org/1999/xlink">
<g><path style="opacity:0.008" fill="#7f807f" d="M -0.5,-0.5 C -0.166667,-0.5 0.166667,-0.5 0.5,-0.5C 0.31468,0.170143 -0.0186536,0.170143 -0.5,-0.5 Z"/></g>
<g><path style="opacity:0.008" fill="#fefffe" d="M 1022.5,-0.5 C 1022.83,-0.5 1023.17,-0.5 1023.5,-0.5C 1023.5,-0.166667 1023.5,0.166667 1023.5,0.5C 1023.17,0.166667 1022.83,-0.166667 1022.5,-0.5 Z"/></g>
<g><path style="opacity:0.079" fill="#ebeef9" d="M 564.5,363.5 C 564.5,362.5 564.5,361.5 564.5,360.5C 543.5,360.5 522.5,360.5 501.5,360.5C 496.5,360.5 491.5,360.5 486.5,360.5C 486.5,361.5 486.5,362.5 486.5,363.5C 488.415,363.216 490.081,363.549 491.5,364.5C 489.901,364.232 488.568,364.566 487.5,365.5C 486.053,364.378 485.053,362.878 484.5,361C 484.833,360.667 485.167,360.333 485.5,360C 512.165,359.5 538.831,359.333 565.5,359.5C 565.768,361.099 565.434,362.432 564.5,363.5 Z"/></g>
<g><path style="opacity:0.145" fill="#e3e8f3" d="M 702.5,364.5 C 702.5,364.167 702.5,363.833 702.5,363.5C 704.048,363.179 704.715,362.179 704.5,360.5C 678.5,360.5 652.5,360.5 626.5,360.5C 626.5,361.5 626.5,362.5 626.5,363.5C 632.845,363.224 638.845,364.224 644.5,366.5C 643.833,366.5 643.167,366.5 642.5,366.5C 636.832,365.975 631.165,365.309 625.5,364.5C 624.253,362.958 624.253,361.458 625.5,360C 652.498,359.5 679.498,359.333 706.5,359.5C 707.244,362.95 705.91,364.616 702.5,364.5 Z"/></g>
<g><path style="opacity:0.467" fill="#676b82" d="M 501.5,360.5 C 522.5,360.5 543.5,360.5 564.5,360.5C 564.5,361.5 564.5,362.5 564.5,363.5C 564.5,364.167 564.167,364.5 563.5,364.5C 562.791,363.596 561.791,363.263 560.5,363.5C 541.021,361.837 521.355,360.837 501.5,360.5 Z"/></g>
<g><path style="opacity:1" fill="#0b173b" d="M 443.5,365.5 C 442.07,365.579 440.736,365.246 439.5,364.5C 438.386,365.723 438.219,367.056 439,368.5C 441.088,369.308 443.088,370.308 445,371.5C 445.726,374.621 447.226,377.287 449.5,379.5C 449.137,380.183 448.804,380.85 448.5,381.5C 436.32,363.886 419.654,357.386 398.5,362C 383.209,368.626 372.709,379.792 367,395.5C 365.29,401.581 363.79,407.581 362.5,413.5C 362.5,406.167 362.5,398.833 362.5,391.5C 364.167,391.5 365.833,391.5 367.5,391.5C 368.015,388.326 369.015,385.326 370.5,382.5C 370.333,381.5 370.167,380.5 370,379.5C 364.603,378.082 364.27,376.082 369,373.5C 370.15,374.424 371.15,374.424 372,373.5C 373.818,377.286 375.318,376.952 376.5,372.5C 374.958,369.638 372.791,368.638 370,369.5C 369.055,369.095 368.388,368.428 368,367.5C 365.586,369.189 363.086,370.689 360.5,372C 358.22,374.209 356.386,376.709 355,379.5C 354.259,378.359 353.425,378.359 352.5,379.5C 346.518,386.778 341.518,394.778 337.5,403.5C 339.235,408.604 338.068,412.937 334,416.5C 333.47,422.164 332.97,427.831 332.5,433.5C 333.292,440.911 334.292,448.244 335.5,455.5C 336.675,455.281 337.675,455.614 338.5,456.5C 339.374,458.747 339.708,461.08 339.5,463.5C 340.5,463.5 341.5,463.5 342.5,463.5C 341.833,468.414 343.666,471.747 348,473.5C 348.495,475.473 348.662,477.473 348.5,479.5C 330.243,457.191 325.743,432.191 335,404.5C 344.951,378.224 363.785,362.39 391.5,357C 409.909,354.626 427.243,357.46 443.5,365.5 Z"/></g>
<g><path style="opacity:0.169" fill="#afa9e3" d="M 487.5,365.5 C 488.568,364.566 489.901,364.232 491.5,364.5C 497.291,364.891 501.624,367.558 504.5,372.5C 506.636,376.576 507.97,380.91 508.5,385.5C 507.662,385.842 507.328,386.508 507.5,387.5C 506.409,378.503 502.076,371.336 494.5,366C 492.19,365.503 489.857,365.337 487.5,365.5 Z"/></g>
<g><path style="opacity:1" fill="#061343" d="M 501.5,360.5 C 521.355,360.837 541.021,361.837 560.5,363.5C 557.122,364.023 554.122,365.356 551.5,367.5C 550.5,367.5 549.5,367.5 548.5,367.5C 547.647,370.363 545.98,372.696 543.5,374.5C 542.751,377.527 542.084,380.527 541.5,383.5C 540.167,383.5 538.833,383.5 537.5,383.5C 536.833,378.167 536.167,378.167 535.5,383.5C 532.833,383.5 530.167,383.5 527.5,383.5C 527.716,394.24 527.049,404.906 525.5,415.5C 526.833,415.5 528.167,415.5 529.5,415.5C 530.037,425.195 529.37,434.695 527.5,444C 527.822,455.801 527.822,467.634 527.5,479.5C 523.5,480.167 523.5,480.833 527.5,481.5C 527.5,482.833 527.5,484.167 527.5,485.5C 525.451,485.706 525.117,486.539 526.5,488C 525.335,489.084 524.002,489.917 522.5,490.5C 516.323,487.05 509.99,483.884 503.5,481C 505.382,480.802 507.048,480.302 508.5,479.5C 509.832,469.188 510.499,458.522 510.5,447.5C 511.02,425.831 511.187,404.164 511,382.5C 509.718,378.424 507.552,375.091 504.5,372.5C 501.624,367.558 497.291,364.891 491.5,364.5C 490.081,363.549 488.415,363.216 486.5,363.5C 486.5,362.5 486.5,361.5 486.5,360.5C 491.5,360.5 496.5,360.5 501.5,360.5 Z"/></g>
<g><path style="opacity:0.18" fill="#bbbee6" d="M 702.5,363.5 C 702.5,363.833 702.5,364.167 702.5,364.5C 687.206,366.631 672.872,371.631 659.5,379.5C 664.681,374.738 670.681,371.238 677.5,369C 685.688,366.369 694.021,364.535 702.5,363.5 Z"/></g>
<g><path style="opacity:1" fill="#131b3f" d="M 702.5,363.5 C 694.021,364.535 685.688,366.369 677.5,369C 670.681,371.238 664.681,374.738 659.5,379.5C 657.589,380.075 655.922,381.075 654.5,382.5C 652.992,380.819 651.992,378.819 651.5,376.5C 652.376,370.664 650.042,367.331 644.5,366.5C 638.845,364.224 632.845,363.224 626.5,363.5C 626.5,362.5 626.5,361.5 626.5,360.5C 652.5,360.5 678.5,360.5 704.5,360.5C 704.715,362.179 704.048,363.179 702.5,363.5 Z"/></g>
<g><path style="opacity:0.243" fill="#babbe0" d="M 642.5,366.5 C 643.167,366.5 643.833,366.5 644.5,366.5C 650.042,367.331 652.376,370.664 651.5,376.5C 636.43,396.323 619.764,414.656 601.5,431.5C 611.773,420.057 622.273,408.723 633,397.5C 638.333,390.833 643.667,384.167 649,377.5C 650.698,371.394 648.531,367.727 642.5,366.5 Z"/></g>
<g><path style="opacity:0.302" fill="#bdc0e3" d="M 375.5,455.5 C 374.206,454.71 373.039,453.71 372,452.5C 364.991,440.455 361.825,427.455 362.5,413.5C 363.79,407.581 365.29,401.581 367,395.5C 372.709,379.792 383.209,368.626 398.5,362C 419.654,357.386 436.32,363.886 448.5,381.5C 448.833,382.167 449.167,382.833 449.5,383.5C 456.966,394.774 461.966,407.108 464.5,420.5C 465.5,420.5 466.5,420.5 467.5,420.5C 468.145,401.488 468.145,382.488 467.5,363.5C 462.484,366.07 457.151,367.07 451.5,366.5C 448.833,366.167 446.167,365.833 443.5,365.5C 427.243,357.46 409.909,354.626 391.5,357C 363.785,362.39 344.951,378.224 335,404.5C 325.743,432.191 330.243,457.191 348.5,479.5C 350.833,482.5 353.5,485.167 356.5,487.5C 366.441,496.471 378.108,502.304 391.5,505C 410.054,507.814 428.72,509.48 447.5,510C 465.463,511.826 481.797,517.826 496.5,528C 498.373,529.704 500.04,531.537 501.5,533.5C 487.189,522.017 470.856,514.851 452.5,512C 432.79,510.713 413.124,509.046 393.5,507C 346.412,494.567 325.245,464.067 330,415.5C 343.593,369.426 374.426,349.593 422.5,356C 431.59,358.711 440.59,361.711 449.5,365C 456.272,366.19 462.606,365.023 468.5,361.5C 469.937,363.021 470.604,364.855 470.5,367C 469.714,384.818 469.214,402.651 469,420.5C 466.989,423.092 465.156,422.925 463.5,420C 458.727,402.297 450.56,386.464 439,372.5C 418.155,356.668 398.489,358.001 380,376.5C 366.52,393.966 361.853,413.633 366,435.5C 368.37,442.573 371.537,449.239 375.5,455.5 Z"/></g>
<g><path style="opacity:1" fill="#051242" d="M 443.5,365.5 C 446.167,365.833 448.833,366.167 451.5,366.5C 456.32,367.487 461.32,368.153 466.5,368.5C 465.874,381.157 465.374,393.823 465,406.5C 464,405.167 463,403.833 462,402.5C 461.686,398.871 460.519,395.538 458.5,392.5C 457.726,391.289 456.893,391.289 456,392.5C 454.881,388.929 453.215,385.596 451,382.5C 450.617,383.056 450.117,383.389 449.5,383.5C 449.167,382.833 448.833,382.167 448.5,381.5C 448.804,380.85 449.137,380.183 449.5,379.5C 447.226,377.287 445.726,374.621 445,371.5C 443.088,370.308 441.088,369.308 439,368.5C 438.219,367.056 438.386,365.723 439.5,364.5C 440.736,365.246 442.07,365.579 443.5,365.5 Z"/></g>
<g><path style="opacity:1" fill="#051342" d="M 362.5,413.5 C 361.825,427.455 364.991,440.455 372,452.5C 373.039,453.71 374.206,454.71 375.5,455.5C 377.833,459.833 381.167,463.167 385.5,465.5C 390.866,470.704 397.199,474.538 404.5,477C 408.07,478.31 411.737,479.143 415.5,479.5C 415.389,480.117 415.056,480.617 414.5,481C 416.758,481.876 418.758,483.043 420.5,484.5C 416.827,485.367 413.494,484.367 410.5,481.5C 409.833,482.167 409.167,482.833 408.5,483.5C 407.289,482.726 407.289,481.893 408.5,481C 405.518,480.502 402.518,480.335 399.5,480.5C 399.5,486.167 399.5,491.833 399.5,497.5C 394.008,497.832 388.675,497.832 383.5,497.5C 383.5,496.5 383.5,495.5 383.5,494.5C 381.801,494.34 380.134,494.506 378.5,495C 377.748,495.671 377.414,496.504 377.5,497.5C 374.703,495.023 371.369,494.023 367.5,494.5C 367.703,492.61 367.037,491.11 365.5,490C 362.487,489.091 359.487,488.258 356.5,487.5C 353.5,485.167 350.833,482.5 348.5,479.5C 348.662,477.473 348.495,475.473 348,473.5C 343.666,471.747 341.833,468.414 342.5,463.5C 341.5,463.5 340.5,463.5 339.5,463.5C 339.708,461.08 339.374,458.747 338.5,456.5C 337.675,455.614 336.675,455.281 335.5,455.5C 334.292,448.244 333.292,440.911 332.5,433.5C 332.97,427.831 333.47,422.164 334,416.5C 338.068,412.937 339.235,408.604 337.5,403.5C 341.518,394.778 346.518,386.778 352.5,379.5C 353.425,378.359 354.259,378.359 355,379.5C 356.386,376.709 358.22,374.209 360.5,372C 363.086,370.689 365.586,369.189 368,367.5C 368.388,368.428 369.055,369.095 370,369.5C 372.791,368.638 374.958,369.638 376.5,372.5C 375.318,376.952 373.818,377.286 372,373.5C 371.15,374.424 370.15,374.424 369,373.5C 364.27,376.082 364.603,378.082 370,379.5C 370.167,380.5 370.333,381.5 370.5,382.5C 369.015,385.326 368.015,388.326 367.5,391.5C 365.833,391.5 364.167,391.5 362.5,391.5C 362.5,398.833 362.5,406.167 362.5,413.5 Z"/></g>
<g><path style="opacity:1" fill="#031142" d="M 541.5,383.5 C 540.341,416.762 540.174,450.095 541,483.5C 541.238,487.222 541.738,490.889 542.5,494.5C 540.257,495.474 537.924,495.808 535.5,495.5C 535.5,494.167 535.5,492.833 535.5,491.5C 534.167,491.5 532.833,491.5 531.5,491.5C 531.5,490.167 531.5,488.833 531.5,487.5C 529.517,487.843 528.183,487.176 527.5,485.5C 527.5,484.167 527.5,482.833 527.5,481.5C 523.5,480.833 523.5,480.167 527.5,479.5C 527.822,467.634 527.822,455.801 527.5,444C 529.37,434.695 530.037,425.195 529.5,415.5C 528.167,415.5 526.833,415.5 525.5,415.5C 527.049,404.906 527.716,394.24 527.5,383.5C 530.167,383.5 532.833,383.5 535.5,383.5C 536.167,378.167 536.833,378.167 537.5,383.5C 538.833,383.5 540.167,383.5 541.5,383.5 Z"/></g>
<g><path style="opacity:0.997" fill="#0e1738" d="M 449.5,383.5 C 450.117,383.389 450.617,383.056 451,382.5C 453.215,385.596 454.881,388.929 456,392.5C 456.893,391.289 457.726,391.289 458.5,392.5C 460.519,395.538 461.686,398.871 462,402.5C 463,403.833 464,405.167 465,406.5C 465.374,393.823 465.874,381.157 466.5,368.5C 461.32,368.153 456.32,367.487 451.5,366.5C 457.151,367.07 462.484,366.07 467.5,363.5C 468.145,382.488 468.145,401.488 467.5,420.5C 466.5,420.5 465.5,420.5 464.5,420.5C 461.966,407.108 456.966,394.774 449.5,383.5 Z"/></g>
<g><path style="opacity:0.027" fill="#acaccd" d="M 659.5,379.5 C 646.522,393.146 633.522,406.813 620.5,420.5C 619.475,420.103 619.308,419.437 620,418.5C 627.16,411.52 633.66,404.853 639.5,398.5C 640.429,397.311 640.762,395.978 640.5,394.5C 645.99,391.693 650.657,387.693 654.5,382.5C 655.922,381.075 657.589,380.075 659.5,379.5 Z"/></g>
<g><path style="opacity:0.157" fill="#cbd1ed" d="M 508.5,385.5 C 508.5,416.833 508.5,448.167 508.5,479.5C 500.483,479.265 492.483,479.098 484.5,479C 504.222,481.864 521.222,490.03 535.5,503.5C 526.311,496.401 516.311,490.568 505.5,486C 498.003,483.391 490.336,481.391 482.5,480C 481.663,478.989 481.33,477.822 481.5,476.5C 489.845,477.078 498.178,477.745 506.5,478.5C 507.312,448.174 507.645,417.841 507.5,387.5C 507.328,386.508 507.662,385.842 508.5,385.5 Z"/></g>
<g><path style="opacity:0.965" fill="#151a31" d="M 651.5,376.5 C 651.992,378.819 652.992,380.819 654.5,382.5C 650.657,387.693 645.99,391.693 640.5,394.5C 640.762,395.978 640.429,397.311 639.5,398.5C 633.66,404.853 627.16,411.52 620,418.5C 619.308,419.437 619.475,420.103 620.5,420.5C 620.167,421.5 619.5,422.167 618.5,422.5C 609.198,430.281 600.032,438.948 591,448.5C 582.669,457.229 574.836,466.229 567.5,475.5C 566.609,476.11 565.609,476.443 564.5,476.5C 564.565,476.062 564.399,475.728 564,475.5C 560.382,479.116 557.549,483.116 555.5,487.5C 554.167,487.5 552.833,487.5 551.5,487.5C 558.566,479.773 565.233,471.773 571.5,463.5C 571.5,462.167 572.167,461.5 573.5,461.5C 583.166,451.833 592.499,441.833 601.5,431.5C 619.764,414.656 636.43,396.323 651.5,376.5 Z"/></g>
<g><path style="opacity:0.995" fill="#0a1737" d="M 504.5,372.5 C 507.552,375.091 509.718,378.424 511,382.5C 511.187,404.164 511.02,425.831 510.5,447.5C 510.499,458.522 509.832,469.188 508.5,479.5C 508.5,448.167 508.5,416.833 508.5,385.5C 507.97,380.91 506.636,376.576 504.5,372.5 Z"/></g>
<g><path style="opacity:0.129" fill="#b3b8e8" d="M 560.5,363.5 C 561.791,363.263 562.791,363.596 563.5,364.5C 558.951,364.591 555.117,366.258 552,369.5C 548.91,373.682 546.91,378.349 546,383.5C 545.575,419.512 545.242,455.512 545,491.5C 553.749,481.922 562.583,472.589 571.5,463.5C 565.233,471.773 558.566,479.773 551.5,487.5C 549.233,490.271 546.733,492.938 544,495.5C 543.333,458.833 543.333,422.167 544,385.5C 544.905,378.785 547.405,372.785 551.5,367.5C 554.122,365.356 557.122,364.023 560.5,363.5 Z"/></g>
<g><path style="opacity:0.298" fill="#bdc0de" d="M 601.5,431.5 C 592.499,441.833 583.166,451.833 573.5,461.5C 581.789,450.544 591.122,440.544 601.5,431.5 Z"/></g>
<g><path style="opacity:0.325" fill="#c3c5ef" d="M 375.5,455.5 C 379.167,458.5 382.5,461.833 385.5,465.5C 381.167,463.167 377.833,459.833 375.5,455.5 Z"/></g>
<g><path style="opacity:0.043" fill="#bcbde1" d="M 618.5,422.5 C 601.396,440.267 584.396,457.934 567.5,475.5C 574.836,466.229 582.669,457.229 591,448.5C 600.032,438.948 609.198,430.281 618.5,422.5 Z"/></g>
<g><path style="opacity:1" fill="#041343" d="M 420.5,484.5 C 436.253,484.601 451.92,485.768 467.5,488C 473.83,490.055 480.163,492.221 486.5,494.5C 486.709,495.086 487.043,495.586 487.5,496C 493.936,495.29 499.269,497.29 503.5,502C 502.37,503.76 501.37,505.593 500.5,507.5C 499.201,505.242 498.201,502.908 497.5,500.5C 495.173,500.247 493.173,500.914 491.5,502.5C 492.689,503.429 494.022,503.762 495.5,503.5C 495.063,506.807 495.73,509.807 497.5,512.5C 492.788,513.503 491.121,516.17 492.5,520.5C 491.833,520.833 491.167,521.167 490.5,521.5C 483.165,518.546 476.165,515.046 469.5,511C 466.367,510.607 463.367,509.774 460.5,508.5C 458.561,509.935 456.894,509.602 455.5,507.5C 437.165,506.296 418.832,505.13 400.5,504C 394.639,502.213 388.639,501.213 382.5,501C 380.416,500.303 378.749,499.136 377.5,497.5C 377.414,496.504 377.748,495.671 378.5,495C 380.134,494.506 381.801,494.34 383.5,494.5C 383.5,495.5 383.5,496.5 383.5,497.5C 388.675,497.832 394.008,497.832 399.5,497.5C 399.5,491.833 399.5,486.167 399.5,480.5C 402.518,480.335 405.518,480.502 408.5,481C 407.289,481.893 407.289,482.726 408.5,483.5C 409.167,482.833 409.833,482.167 410.5,481.5C 413.494,484.367 416.827,485.367 420.5,484.5 Z"/></g>
<g><path style="opacity:0.184" fill="#babbe3" d="M 385.5,465.5 C 393.272,470.383 401.605,474.217 410.5,477C 429.134,479.552 447.8,481.885 466.5,484C 492.607,488.13 514.773,499.63 533,518.5C 534.094,520.078 534.928,521.745 535.5,523.5C 517.678,503.248 495.344,490.748 468.5,486C 450.841,483.644 433.174,481.478 415.5,479.5C 411.737,479.143 408.07,478.31 404.5,477C 397.199,474.538 390.866,470.704 385.5,465.5 Z"/></g>
<g><path style="opacity:1" fill="#08143e" d="M 551.5,367.5 C 547.405,372.785 544.905,378.785 544,385.5C 543.333,422.167 543.333,458.833 544,495.5C 546.733,492.938 549.233,490.271 551.5,487.5C 552.833,487.5 554.167,487.5 555.5,487.5C 557.549,483.116 560.382,479.116 564,475.5C 564.399,475.728 564.565,476.062 564.5,476.5C 572.186,484.854 579.519,493.521 586.5,502.5C 584.04,501.063 581.374,500.063 578.5,499.5C 578.5,498.167 578.5,496.833 578.5,495.5C 575.921,495.917 573.754,495.25 572,493.5C 566.689,495.198 561.189,496.531 555.5,497.5C 554.884,502.947 556.218,507.78 559.5,512C 558.422,516.006 559.922,518.839 564,520.5C 564.667,519.833 565.333,519.167 566,518.5C 566.5,518.833 567,519.167 567.5,519.5C 566.833,520.5 566.167,521.5 565.5,522.5C 566.708,525.346 568.208,528.013 570,530.5C 570.333,530.167 570.667,529.833 571,529.5C 571.336,533.039 573.169,535.206 576.5,536C 575.594,537.699 575.261,539.533 575.5,541.5C 565.637,529.645 555.637,517.812 545.5,506C 543.887,505.911 542.72,506.745 542,508.5C 540.223,506.21 538.056,504.543 535.5,503.5C 521.222,490.03 504.222,481.864 484.5,479C 492.483,479.098 500.483,479.265 508.5,479.5C 507.048,480.302 505.382,480.802 503.5,481C 509.99,483.884 516.323,487.05 522.5,490.5C 524.002,489.917 525.335,489.084 526.5,488C 525.117,486.539 525.451,485.706 527.5,485.5C 528.183,487.176 529.517,487.843 531.5,487.5C 531.5,488.833 531.5,490.167 531.5,491.5C 532.833,491.5 534.167,491.5 535.5,491.5C 535.5,492.833 535.5,494.167 535.5,495.5C 537.924,495.808 540.257,495.474 542.5,494.5C 541.738,490.889 541.238,487.222 541,483.5C 540.174,450.095 540.341,416.762 541.5,383.5C 542.084,380.527 542.751,377.527 543.5,374.5C 545.98,372.696 547.647,370.363 548.5,367.5C 549.5,367.5 550.5,367.5 551.5,367.5 Z"/></g>
<g><path style="opacity:1" fill="#041342" d="M 586.5,502.5 C 602.553,520.951 617.886,539.951 632.5,559.5C 633.127,564.344 631.627,568.344 628,571.5C 627.587,568.768 626.92,566.101 626,563.5C 625.781,564.938 625.281,566.271 624.5,567.5C 623.205,564.988 622.539,562.321 622.5,559.5C 621.5,559.5 620.5,559.5 619.5,559.5C 619.5,562.167 619.5,564.833 619.5,567.5C 614.849,567.679 610.349,567.679 606,567.5C 605.044,568.579 604.211,569.745 603.5,571C 602.451,571.492 601.451,571.326 600.5,570.5C 599.167,567.5 597.833,564.5 596.5,561.5C 590.953,559.95 587.953,556.283 587.5,550.5C 583.988,549.995 581.655,547.995 580.5,544.5C 579.675,543.614 578.675,543.281 577.5,543.5C 576.5,543.167 575.833,542.5 575.5,541.5C 575.261,539.533 575.594,537.699 576.5,536C 573.169,535.206 571.336,533.039 571,529.5C 570.667,529.833 570.333,530.167 570,530.5C 568.208,528.013 566.708,525.346 565.5,522.5C 566.167,521.5 566.833,520.5 567.5,519.5C 567,519.167 566.5,518.833 566,518.5C 565.333,519.167 564.667,519.833 564,520.5C 559.922,518.839 558.422,516.006 559.5,512C 556.218,507.78 554.884,502.947 555.5,497.5C 561.189,496.531 566.689,495.198 572,493.5C 573.754,495.25 575.921,495.917 578.5,495.5C 578.5,496.833 578.5,498.167 578.5,499.5C 581.374,500.063 584.04,501.063 586.5,502.5 Z"/></g>
<g><path style="opacity:1" fill="#0a1640" d="M 415.5,479.5 C 433.174,481.478 450.841,483.644 468.5,486C 495.344,490.748 517.678,503.248 535.5,523.5C 538.167,528.167 540.833,532.833 543.5,537.5C 540.943,535.968 538.443,534.301 536,532.5C 535.828,527.17 533.328,525.503 528.5,527.5C 528.722,524.61 528.055,521.943 526.5,519.5C 522.805,518.014 520.471,519.181 519.5,523C 519.755,524.326 520.422,525.326 521.5,526C 521.167,526.333 520.833,526.667 520.5,527C 516.167,527.333 511.833,527.667 507.5,528C 503.516,530.874 503.849,533.04 508.5,534.5C 509.668,536.813 511.002,539.146 512.5,541.5C 514.179,542.782 516.013,543.782 518,544.5C 518.018,546.797 517.851,549.131 517.5,551.5C 514.53,547.68 511.696,543.68 509,539.5C 506.894,536.882 504.394,534.882 501.5,533.5C 500.04,531.537 498.373,529.704 496.5,528C 481.797,517.826 465.463,511.826 447.5,510C 428.72,509.48 410.054,507.814 391.5,505C 378.108,502.304 366.441,496.471 356.5,487.5C 359.487,488.258 362.487,489.091 365.5,490C 367.037,491.11 367.703,492.61 367.5,494.5C 371.369,494.023 374.703,495.023 377.5,497.5C 378.749,499.136 380.416,500.303 382.5,501C 388.639,501.213 394.639,502.213 400.5,504C 418.832,505.13 437.165,506.296 455.5,507.5C 456.894,509.602 458.561,509.935 460.5,508.5C 463.367,509.774 466.367,510.607 469.5,511C 476.165,515.046 483.165,518.546 490.5,521.5C 491.167,521.167 491.833,520.833 492.5,520.5C 491.121,516.17 492.788,513.503 497.5,512.5C 495.73,509.807 495.063,506.807 495.5,503.5C 494.022,503.762 492.689,503.429 491.5,502.5C 493.173,500.914 495.173,500.247 497.5,500.5C 498.201,502.908 499.201,505.242 500.5,507.5C 501.37,505.593 502.37,503.76 503.5,502C 499.269,497.29 493.936,495.29 487.5,496C 487.043,495.586 486.709,495.086 486.5,494.5C 480.163,492.221 473.83,490.055 467.5,488C 451.92,485.768 436.253,484.601 420.5,484.5C 418.758,483.043 416.758,481.876 414.5,481C 415.056,480.617 415.389,480.117 415.5,479.5 Z"/></g>
<g><path style="opacity:1" fill="#041243" d="M 543.5,537.5 C 543.92,544.093 545.92,550.093 549.5,555.5C 548.104,556.852 547.437,558.519 547.5,560.5C 548.2,564.696 549.533,568.529 551.5,572C 551.546,573.728 551.046,575.228 550,576.5C 549.667,584.167 549.333,591.833 549,599.5C 548.333,600.167 547.667,600.833 547,601.5C 546.712,606.601 545.878,611.601 544.5,616.5C 543.28,616.113 542.613,615.28 542.5,614C 543.068,612.128 543.735,610.295 544.5,608.5C 542.955,607.548 541.288,607.215 539.5,607.5C 539.534,603.37 540.201,599.37 541.5,595.5C 539.5,595.5 537.5,595.5 535.5,595.5C 534.833,590.167 534.167,590.167 533.5,595.5C 531.799,595.966 530.299,595.966 529,595.5C 528.667,588.5 528.333,581.5 528,574.5C 525.296,569.892 523.962,564.892 524,559.5C 522.265,556.638 520.098,554.304 517.5,552.5C 517.5,552.167 517.5,551.833 517.5,551.5C 517.851,549.131 518.018,546.797 518,544.5C 516.013,543.782 514.179,542.782 512.5,541.5C 511.002,539.146 509.668,536.813 508.5,534.5C 503.849,533.04 503.516,530.874 507.5,528C 511.833,527.667 516.167,527.333 520.5,527C 520.833,526.667 521.167,526.333 521.5,526C 520.422,525.326 519.755,524.326 519.5,523C 520.471,519.181 522.805,518.014 526.5,519.5C 528.055,521.943 528.722,524.61 528.5,527.5C 533.328,525.503 535.828,527.17 536,532.5C 538.443,534.301 540.943,535.968 543.5,537.5 Z"/></g>
<g><path style="opacity:1" fill="#041243" d="M 450.5,621.5 C 447.45,623.692 444.117,625.358 440.5,626.5C 433.576,627.733 426.576,628.566 419.5,629C 420.071,627.795 420.738,626.628 421.5,625.5C 436.343,619.731 445.343,609.064 448.5,593.5C 448.5,592.833 448.5,592.167 448.5,591.5C 449.5,591.5 450.5,591.5 451.5,591.5C 451.161,577.902 451.828,564.569 453.5,551.5C 451.5,551.167 449.5,550.833 447.5,550.5C 446.492,545.8 446.492,541.133 447.5,536.5C 452.792,535.505 458.125,535.172 463.5,535.5C 463.351,534.448 463.517,533.448 464,532.5C 464.991,533.939 466.324,534.939 468,535.5C 468.333,534.833 468.667,534.167 469,533.5C 469.875,536.215 471.708,537.548 474.5,537.5C 474.092,540.599 475.259,542.933 478,544.5C 478.52,548.071 479.353,551.571 480.5,555C 480.441,556.436 480.108,557.769 479.5,559C 480.684,560.18 481.351,561.68 481.5,563.5C 479.183,570.224 478.016,577.224 478,584.5C 476.989,585.337 475.822,585.67 474.5,585.5C 473.175,590.155 471.842,594.822 470.5,599.5C 467.182,603.151 464.182,606.985 461.5,611C 459.507,612.621 457.507,614.287 455.5,616C 454.167,616.333 452.833,616.667 451.5,617C 452.167,617.333 452.833,617.667 453.5,618C 451.574,618.422 450.574,619.589 450.5,621.5 Z"/></g>
<g><path style="opacity:0.035" fill="#b9b9e3" d="M 535.5,523.5 C 540.036,528.204 543.87,533.537 547,539.5C 557.153,564.123 558.153,589.123 550,614.5C 549.218,624.737 554.052,630.57 564.5,632C 567.328,634.851 566.662,636.351 562.5,636.5C 554.856,635.435 547.189,635.268 539.5,636C 538.956,636.717 538.289,637.217 537.5,637.5C 537.414,636.504 537.748,635.671 538.5,635C 547.167,634.667 555.833,634.333 564.5,634C 557.508,632.258 552.008,628.425 548,622.5C 547.333,620.167 547.333,617.833 548,615.5C 555.416,595.517 556.416,575.184 551,554.5C 549.545,548.274 547.045,542.608 543.5,537.5C 540.833,532.833 538.167,528.167 535.5,523.5 Z"/></g>
<g><path style="opacity:0.267" fill="#b8b8e2" d="M 379.5,629.5 C 396.777,633.279 414.11,633.446 431.5,630C 434.718,629.1 437.718,627.933 440.5,626.5C 444.117,625.358 447.45,623.692 450.5,621.5C 468.225,610.418 478.725,594.418 482,573.5C 484.004,559.86 482.004,546.86 476,534.5C 470.343,526.25 462.51,521.416 452.5,520C 440.196,518.581 427.862,518.248 415.5,519C 444.508,534.821 455.508,558.987 448.5,591.5C 448.5,592.167 448.5,592.833 448.5,593.5C 438.552,619.492 419.552,630.658 391.5,627C 376.624,624.065 363.957,617.232 353.5,606.5C 348.466,598.478 343.466,590.478 338.5,582.5C 336.968,577.903 335.635,573.236 334.5,568.5C 334.833,568.5 335.167,568.5 335.5,568.5C 341.033,585.393 350.033,600.227 362.5,613C 378.179,624.001 395.512,628.001 414.5,625C 431.494,619.873 442.327,608.706 447,591.5C 453.177,566.368 446.677,545.202 427.5,528C 423.796,525.148 419.796,522.815 415.5,521C 413.993,520.163 413.493,518.996 414,517.5C 429.243,515.857 444.409,516.691 459.5,520C 472.616,525.027 480.45,534.527 483,548.5C 488.482,588.963 472.315,616.463 434.5,631C 420.607,633.455 406.607,634.122 392.5,633C 387.853,632.462 383.52,631.295 379.5,629.5 Z"/></g>
<g><path style="opacity:1" fill="#0b153f" d="M 450.5,621.5 C 450.574,619.589 451.574,618.422 453.5,618C 452.833,617.667 452.167,617.333 451.5,617C 452.833,616.667 454.167,616.333 455.5,616C 457.507,614.287 459.507,612.621 461.5,611C 464.182,606.985 467.182,603.151 470.5,599.5C 471.842,594.822 473.175,590.155 474.5,585.5C 475.822,585.67 476.989,585.337 478,584.5C 478.016,577.224 479.183,570.224 481.5,563.5C 481.351,561.68 480.684,560.18 479.5,559C 480.108,557.769 480.441,556.436 480.5,555C 479.353,551.571 478.52,548.071 478,544.5C 475.259,542.933 474.092,540.599 474.5,537.5C 471.708,537.548 469.875,536.215 469,533.5C 468.667,534.167 468.333,534.833 468,535.5C 466.324,534.939 464.991,533.939 464,532.5C 463.517,533.448 463.351,534.448 463.5,535.5C 458.125,535.172 452.792,535.505 447.5,536.5C 446.492,541.133 446.492,545.8 447.5,550.5C 449.5,550.833 451.5,551.167 453.5,551.5C 451.828,564.569 451.161,577.902 451.5,591.5C 450.5,591.5 449.5,591.5 448.5,591.5C 455.508,558.987 444.508,534.821 415.5,519C 427.862,518.248 440.196,518.581 452.5,520C 462.51,521.416 470.343,526.25 476,534.5C 482.004,546.86 484.004,559.86 482,573.5C 478.725,594.418 468.225,610.418 450.5,621.5 Z"/></g>
<g><path style="opacity:0.016" fill="#b9b8e1" d="M 567.5,475.5 C 567.586,476.496 567.252,477.329 566.5,478C 575.041,485.873 582.875,494.373 590,503.5C 618,538.167 646,572.833 674,607.5C 681.278,615.784 689.444,622.951 698.5,629C 702.425,630.584 706.425,631.917 710.5,633C 711.833,634.333 711.833,635.667 710.5,637C 677.324,644.188 649.824,635.021 628,609.5C 600.333,575.5 572.667,541.5 545,507.5C 544.167,508.5 543.333,509.5 542.5,510.5C 539.791,508.458 537.458,506.124 535.5,503.5C 538.056,504.543 540.223,506.21 542,508.5C 542.72,506.745 543.887,505.911 545.5,506C 555.637,517.812 565.637,529.645 575.5,541.5C 575.833,542.5 576.5,543.167 577.5,543.5C 590.101,561.014 603.434,578.014 617.5,594.5C 625.652,604.152 634.319,613.319 643.5,622C 651.738,628.786 661.072,633.452 671.5,636C 684.162,636.5 696.829,636.667 709.5,636.5C 709.5,635.5 709.5,634.5 709.5,633.5C 706.729,633.579 704.063,633.079 701.5,632C 695.83,629.167 690.497,625.834 685.5,622C 671.504,607.518 658.504,592.352 646.5,576.5C 642.539,570.241 637.873,564.575 632.5,559.5C 617.886,539.951 602.553,520.951 586.5,502.5C 579.519,493.521 572.186,484.854 564.5,476.5C 565.609,476.443 566.609,476.11 567.5,475.5 Z"/></g>
<g><path style="opacity:1" fill="#051240" d="M 577.5,543.5 C 578.675,543.281 579.675,543.614 580.5,544.5C 581.655,547.995 583.988,549.995 587.5,550.5C 587.953,556.283 590.953,559.95 596.5,561.5C 597.833,564.5 599.167,567.5 600.5,570.5C 601.451,571.326 602.451,571.492 603.5,571C 604.211,569.745 605.044,568.579 606,567.5C 610.349,567.679 614.849,567.679 619.5,567.5C 619.5,564.833 619.5,562.167 619.5,559.5C 620.5,559.5 621.5,559.5 622.5,559.5C 622.539,562.321 623.205,564.988 624.5,567.5C 625.281,566.271 625.781,564.938 626,563.5C 626.92,566.101 627.587,568.768 628,571.5C 631.627,568.344 633.127,564.344 632.5,559.5C 637.873,564.575 642.539,570.241 646.5,576.5C 649.082,581.996 652.415,586.996 656.5,591.5C 654.955,592.452 653.288,592.785 651.5,592.5C 651.5,593.5 651.5,594.5 651.5,595.5C 647.5,595.5 643.5,595.5 639.5,595.5C 639.5,598.833 639.5,602.167 639.5,605.5C 636.534,605.11 633.868,605.777 631.5,607.5C 630.269,606.349 630.269,605.183 631.5,604C 630.246,600.999 628.913,598.165 627.5,595.5C 624.119,595.54 620.786,595.207 617.5,594.5C 603.434,578.014 590.101,561.014 577.5,543.5 Z"/></g>
<g><path style="opacity:1" fill="#051241" d="M 338.5,582.5 C 343.466,590.478 348.466,598.478 353.5,606.5C 352.957,606.56 352.624,606.893 352.5,607.5C 353.796,609.336 354.63,611.336 355,613.5C 356.699,614.406 358.533,614.739 360.5,614.5C 360.5,615.5 360.5,616.5 360.5,617.5C 364.79,618.65 368.79,620.317 372.5,622.5C 372.413,625.598 372.913,625.932 374,623.5C 374.41,624.901 374.91,626.234 375.5,627.5C 373.863,626.782 372.197,626.616 370.5,627C 371.056,627.383 371.389,627.883 371.5,628.5C 368.026,629.895 365.692,628.729 364.5,625C 364.585,623.893 364.919,622.893 365.5,622C 362.632,619.568 359.299,618.235 355.5,618C 354.953,617.075 354.287,616.242 353.5,615.5C 347.77,618.121 342.103,618.121 336.5,615.5C 332.62,602.416 331.62,589.082 333.5,575.5C 335.434,577.724 337.101,580.058 338.5,582.5 Z"/></g>
<g><path style="opacity:0.258" fill="#b1aee6" d="M 335.5,568.5 C 335.167,568.5 334.833,568.5 334.5,568.5C 333.067,565.718 331.9,562.718 331,559.5C 330.167,583.507 330.334,607.507 331.5,631.5C 333.397,628.314 335.731,625.647 338.5,623.5C 338.5,623.833 338.5,624.167 338.5,624.5C 336.472,626.713 334.805,629.213 333.5,632C 332.207,632.49 330.873,632.657 329.5,632.5C 328.773,608.169 328.606,583.836 329,559.5C 330.333,558.167 331.667,558.167 333,559.5C 333.395,562.652 334.228,565.652 335.5,568.5 Z"/></g>
<g><path style="opacity:1" fill="#06133f" d="M 646.5,576.5 C 658.504,592.352 671.504,607.518 685.5,622C 690.497,625.834 695.83,629.167 701.5,632C 704.063,633.079 706.729,633.579 709.5,633.5C 709.5,634.5 709.5,635.5 709.5,636.5C 696.829,636.667 684.162,636.5 671.5,636C 661.072,633.452 651.738,628.786 643.5,622C 634.319,613.319 625.652,604.152 617.5,594.5C 620.786,595.207 624.119,595.54 627.5,595.5C 628.913,598.165 630.246,600.999 631.5,604C 630.269,605.183 630.269,606.349 631.5,607.5C 633.868,605.777 636.534,605.11 639.5,605.5C 639.5,602.167 639.5,598.833 639.5,595.5C 643.5,595.5 647.5,595.5 651.5,595.5C 651.5,594.5 651.5,593.5 651.5,592.5C 653.288,592.785 654.955,592.452 656.5,591.5C 652.415,586.996 649.082,581.996 646.5,576.5 Z"/></g>
<g><path style="opacity:1" fill="#091540" d="M 543.5,537.5 C 547.045,542.608 549.545,548.274 551,554.5C 556.416,575.184 555.416,595.517 548,615.5C 547.333,617.833 547.333,620.167 548,622.5C 552.008,628.425 557.508,632.258 564.5,634C 555.833,634.333 547.167,634.667 538.5,635C 537.748,635.671 537.414,636.504 537.5,637.5C 521.863,657.326 501.53,669.493 476.5,674C 473.833,674.667 471.167,674.667 468.5,674C 506.417,659.225 525.75,631.391 526.5,590.5C 526.63,577.046 523.63,564.379 517.5,552.5C 520.098,554.304 522.265,556.638 524,559.5C 523.962,564.892 525.296,569.892 528,574.5C 528.333,581.5 528.667,588.5 529,595.5C 530.299,595.966 531.799,595.966 533.5,595.5C 534.167,590.167 534.833,590.167 535.5,595.5C 537.5,595.5 539.5,595.5 541.5,595.5C 540.201,599.37 539.534,603.37 539.5,607.5C 541.288,607.215 542.955,607.548 544.5,608.5C 543.735,610.295 543.068,612.128 542.5,614C 542.613,615.28 543.28,616.113 544.5,616.5C 545.878,611.601 546.712,606.601 547,601.5C 547.667,600.833 548.333,600.167 549,599.5C 549.333,591.833 549.667,584.167 550,576.5C 551.046,575.228 551.546,573.728 551.5,572C 549.533,568.529 548.2,564.696 547.5,560.5C 547.437,558.519 548.104,556.852 549.5,555.5C 545.92,550.093 543.92,544.093 543.5,537.5 Z"/></g>
<g><path style="opacity:0.02" fill="#bdbce5" d="M 399.5,663.5 C 397.407,662.955 395.407,662.122 393.5,661C 378.91,650.164 366.577,637.164 356.5,622C 349.92,619.451 343.92,620.284 338.5,624.5C 338.5,624.167 338.5,623.833 338.5,623.5C 340.12,621.016 342.453,619.516 345.5,619C 349.211,618.561 352.878,618.894 356.5,620C 368.361,637.027 382.695,651.527 399.5,663.5 Z"/></g>
<g><path style="opacity:0.235" fill="#bdc2e7" d="M 375.5,627.5 C 377.153,627.66 378.486,628.326 379.5,629.5C 377.801,629.34 376.134,629.506 374.5,630C 375.056,630.383 375.389,630.883 375.5,631.5C 373.596,631.262 372.262,630.262 371.5,628.5C 371.389,627.883 371.056,627.383 370.5,627C 372.197,626.616 373.863,626.782 375.5,627.5 Z"/></g>
<g><path style="opacity:0.999" fill="#0e1738" d="M 448.5,593.5 C 445.343,609.064 436.343,619.731 421.5,625.5C 420.738,626.628 420.071,627.795 419.5,629C 426.576,628.566 433.576,627.733 440.5,626.5C 437.718,627.933 434.718,629.1 431.5,630C 414.11,633.446 396.777,633.279 379.5,629.5C 378.486,628.326 377.153,627.66 375.5,627.5C 374.91,626.234 374.41,624.901 374,623.5C 372.913,625.932 372.413,625.598 372.5,622.5C 368.79,620.317 364.79,618.65 360.5,617.5C 360.5,616.5 360.5,615.5 360.5,614.5C 358.533,614.739 356.699,614.406 355,613.5C 354.63,611.336 353.796,609.336 352.5,607.5C 352.624,606.893 352.957,606.56 353.5,606.5C 363.957,617.232 376.624,624.065 391.5,627C 419.552,630.658 438.552,619.492 448.5,593.5 Z"/></g>
<g><path style="opacity:1" fill="#0e153b" d="M 334.5,568.5 C 335.635,573.236 336.968,577.903 338.5,582.5C 337.101,580.058 335.434,577.724 333.5,575.5C 331.62,589.082 332.62,602.416 336.5,615.5C 342.103,618.121 347.77,618.121 353.5,615.5C 354.287,616.242 354.953,617.075 355.5,618C 359.299,618.235 362.632,619.568 365.5,622C 364.919,622.893 364.585,623.893 364.5,625C 365.692,628.729 368.026,629.895 371.5,628.5C 372.262,630.262 373.596,631.262 375.5,631.5C 375.414,632.496 375.748,633.329 376.5,634C 387.438,642.968 399.438,650.135 412.5,655.5C 408.363,655.114 404.363,654.114 400.5,652.5C 397.207,653.969 394.373,653.302 392,650.5C 390.228,651.99 390.061,653.657 391.5,655.5C 395.598,656.21 398.598,658.376 400.5,662C 402.774,662.47 404.774,663.47 406.5,665C 411.607,666.795 416.94,667.795 422.5,668C 423.337,669.011 423.67,670.178 423.5,671.5C 430.823,672.285 438.156,672.452 445.5,672C 446.328,671.085 447.328,670.419 448.5,670C 452.167,669.667 455.833,669.333 459.5,669C 463.448,666.231 462.948,664.398 458,663.5C 456.774,663.645 455.607,663.978 454.5,664.5C 446.215,663.696 437.882,663.196 429.5,663C 427.184,661.702 425.184,660.202 423.5,658.5C 444.621,664.574 465.288,663.24 485.5,654.5C 485.833,654.667 486.167,654.833 486.5,655C 484.093,657.183 481.76,659.35 479.5,661.5C 466.367,669.654 452.034,673.987 436.5,674.5C 430.737,674.317 425.071,673.484 419.5,672C 412.696,669.43 406.03,666.597 399.5,663.5C 382.695,651.527 368.361,637.027 356.5,620C 352.878,618.894 349.211,618.561 345.5,619C 342.453,619.516 340.12,621.016 338.5,623.5C 335.731,625.647 333.397,628.314 331.5,631.5C 330.334,607.507 330.167,583.507 331,559.5C 331.9,562.718 333.067,565.718 334.5,568.5 Z"/></g>
<g><path style="opacity:0.031" fill="#babfdd" d="M 375.5,631.5 C 402.047,653.976 432.714,663.143 467.5,659C 474.71,657.33 481.543,654.83 488,651.5C 489.365,652.593 489.699,653.926 489,655.5C 486.198,658.146 483.032,660.146 479.5,661.5C 481.76,659.35 484.093,657.183 486.5,655C 486.167,654.833 485.833,654.667 485.5,654.5C 465.288,663.24 444.621,664.574 423.5,658.5C 419.89,657.297 416.223,656.297 412.5,655.5C 399.438,650.135 387.438,642.968 376.5,634C 375.748,633.329 375.414,632.496 375.5,631.5 Z"/></g>
<g><path style="opacity:1" fill="#041142" d="M 412.5,655.5 C 416.223,656.297 419.89,657.297 423.5,658.5C 425.184,660.202 427.184,661.702 429.5,663C 437.882,663.196 446.215,663.696 454.5,664.5C 455.607,663.978 456.774,663.645 458,663.5C 462.948,664.398 463.448,666.231 459.5,669C 455.833,669.333 452.167,669.667 448.5,670C 447.328,670.419 446.328,671.085 445.5,672C 438.156,672.452 430.823,672.285 423.5,671.5C 423.67,670.178 423.337,669.011 422.5,668C 416.94,667.795 411.607,666.795 406.5,665C 404.774,663.47 402.774,662.47 400.5,662C 398.598,658.376 395.598,656.21 391.5,655.5C 390.061,653.657 390.228,651.99 392,650.5C 394.373,653.302 397.207,653.969 400.5,652.5C 404.363,654.114 408.363,655.114 412.5,655.5 Z"/></g>
<g><path style="opacity:0.204" fill="#bec3e3" d="M 501.5,533.5 C 504.394,534.882 506.894,536.882 509,539.5C 511.696,543.68 514.53,547.68 517.5,551.5C 517.5,551.833 517.5,552.167 517.5,552.5C 523.63,564.379 526.63,577.046 526.5,590.5C 525.75,631.391 506.417,659.225 468.5,674C 471.167,674.667 473.833,674.667 476.5,674C 501.53,669.493 521.863,657.326 537.5,637.5C 534.142,643.505 529.808,648.838 524.5,653.5C 511.806,664.572 497.139,671.739 480.5,675C 475.649,675.934 470.983,675.601 466.5,674C 512.073,654.695 530.906,620.528 523,571.5C 519.16,556.806 511.994,544.14 501.5,533.5 Z"/></g>
<g><path style="opacity:0.208" fill="#c7cae6" d="M 479.5,661.5 C 461.394,675.554 441.061,679.387 418.5,673C 414.91,671.47 411.243,670.136 407.5,669C 404.401,667.724 401.734,665.89 399.5,663.5C 406.03,666.597 412.696,669.43 419.5,672C 425.071,673.484 430.737,674.317 436.5,674.5C 452.034,673.987 466.367,669.654 479.5,661.5 Z"/></g>
<g><path style="opacity:0.008" fill="#fefffe" d="M -0.5,1022.5 C 0.166667,1022.5 0.5,1022.83 0.5,1023.5C 0.166667,1023.17 -0.166667,1022.83 -0.5,1022.5 Z"/></g>
</svg>
